# xmcd CD database file
#
# Track frame offsets:
#	150
#	27979
#	53148
#	72773
#	96100
#	121503
#	139402
#	158254
#	174732
#	193234
#
# Disc length: 2829 seconds
#
# Revision: 0
# Processed by: cddbd v1.5.1PL0 Copyright (c) Steve Scherf et al.
# Submitted via: CDex 1.51
#
DISCID=810b0b0a
DTITLE=Ryan Rie - FREEDOM AND SOLITUDE
DYEAR=2002
DGENRE=Pop
TTITLE0=人魚
TTITLE1=PUZZLE
TTITLE2=A LITTEL LIGHT
TTITLE3=THINK OF YOU AGAIN
TTITLE4=FADE AWAY
TTITLE5=GO HOME
TTITLE6=THAT NIGHT
TTITLE7=ENDLESS TIME
TTITLE8=I CAN SAY GOODBYE
TTITLE9=AWAKE
EXTD=YEAR: 2002
EXTT0=
EXTT1=
EXTT2=
EXTT3=
EXTT4=
EXTT5=
EXTT6=
EXTT7=
EXTT8=
EXTT9=
PLAYORDER=
